<svg width="885" height="100" viewBox="0 0 885 100" version="1.1" xmlns="http://www.w3.org/2000/svg">
    <g stroke="none" stroke-width="1" fill="none" fill-rule="evenodd" transform="scale(5)">
        <path d="M90.6667607,5.32907052e-15 C95.7745714,5.32907052e-15 99.7709024,3.45864662 99.7709024,9.97493734 C99.7709024,16.4912281 95.7745714,20 90.6667607,20 C85.5589501,20 81.5813519,16.4348371 81.5813519,9.97493734 C81.5813519,3.51503759 85.5589501,5.32907052e-15 90.6667607,5.32907052e-15 Z M51.6713116,4.65538847 C53.4777085,4.63471739 55.2551687,5.11148676 56.8103436,6.03383459 L56.8103436,6.03383459 L55.3117195,8.39598997 C54.2625007,7.67269524 53.0192108,7.28597653 51.7462429,7.28696742 C50.5098779,7.28696742 49.0612079,7.68796992 49.0612079,8.97243108 C49.0612079,9.81203008 49.5732378,10.2631579 50.6784732,10.4887218 L50.6784732,10.4887218 L52.963875,10.9398496 L52.9826078,10.9899749 C55.5677344,11.4661654 57.0226487,12.7631579 57.0226487,15.3759398 C57.0226487,18.5087719 54.4874762,19.9937343 51.4028082,19.9937343 C49.2867601,20.0606398 47.2333837,19.2676521 45.7080364,17.7944862 L45.7080364,17.7944862 L47.4938968,15.5827068 C48.5491465,16.6455595 49.9764923,17.2526301 51.4714951,17.2744361 C53.0200734,17.2744361 53.8130953,16.5914787 53.8130953,15.5701754 C53.8130953,14.6616541 53.3759966,14.1478697 52.2332957,13.9223058 L52.2332957,13.9223058 L49.9291611,13.4711779 C47.2129048,12.9385965 45.9016087,11.6102757 45.9016087,9.28571429 C45.9016087,6.16541353 48.6053764,4.65538847 51.6713116,4.65538847 Z M27.9743174,4.65538847 C32.101778,4.65538847 34.4683553,7.40601504 34.4683553,12.1741855 C34.4683553,12.7130326 34.3809356,13.1766917 34.3809356,13.7030075 L34.3809356,13.7030075 L24.6898328,13.7030075 C24.8678472,15.6436227 26.4942469,17.1259979 28.4363931,17.1177945 C29.921826,17.1259457 31.3540181,16.5632124 32.4389685,15.5451128 L32.4389685,15.5451128 L33.9563254,17.9260652 C32.3831852,19.2539268 30.3921943,19.9797989 28.3364849,19.9749616 C23.9155436,19.9749616 21.5239893,16.5350877 21.5239893,12.2681704 C21.5239893,8.33333333 23.971742,4.67418546 27.9930502,4.67418546 L27.9930502,4.67418546 Z M65.2588372,4.67418546 C69.6360686,4.67418546 72.0713328,7.92606516 72.0713328,12.2932331 C72.0713328,16.660401 69.692267,19.9749373 65.2588372,19.9749373 C60.8254075,19.9749373 58.477563,16.6102757 58.477563,12.2932331 C58.477563,7.97619048 60.8503845,4.67418546 65.2588372,4.67418546 Z M132.172405,4.67418546 C136.549637,4.67418546 138.984901,7.92606516 138.984901,12.2932331 C138.984901,16.660401 136.612079,19.9749373 132.172405,19.9749373 C127.732731,19.9749373 125.384887,16.6102757 125.384887,12.2932331 C125.384887,7.97619048 127.763953,4.67418546 132.172405,4.67418546 Z M39.7197841,0.213032581 L39.7197841,4.88095238 L43.922176,4.88095238 L43.922176,7.76942356 L39.7197841,7.76942356 L39.7197841,15.1629073 C39.66983,17.4749373 42.1612926,17.1741855 43.7473365,16.4160401 L43.7473365,16.4160401 L44.552847,19.0914787 C43.3947007,19.6887372 42.1083223,19.992072 40.8062866,19.9749373 C38.1899386,19.9749373 36.5414521,18.3082707 36.5414521,15.7080201 L36.5414521,15.7080201 L36.5414521,0.213032581 L39.7197841,0.213032581 Z M119.958618,0.213032581 L119.958618,4.88095238 L124.16101,4.88095238 L124.16101,7.76942356 L119.958618,7.76942356 L119.958618,15.1629073 C119.90242,17.4749373 122.393883,17.1741855 123.986171,16.4160401 L123.986171,16.4160401 L124.822903,19.0914787 C123.664756,19.6887372 122.378378,19.992072 121.076342,19.9749373 C118.45375,19.9749373 116.805264,18.3082707 116.805264,15.7080201 L116.805264,15.7080201 L116.805264,0.213032581 L119.958618,0.213032581 Z M144.28004,0.213032581 L144.28004,4.88095238 L148.482431,4.88095238 L148.482431,7.76942356 L144.28004,7.76942356 L144.28004,15.1378446 L144.292528,15.1629073 C144.242574,17.4749373 146.734037,17.1741855 148.32008,16.4160401 L148.32008,16.4160401 L149.119347,19.0914787 C147.961555,19.6897042 146.674933,19.9930964 145.372786,19.9749373 C142.750194,19.9749373 141.101707,18.3082707 141.101707,15.7080201 L141.101707,15.7080201 L141.101707,0.213032581 L144.28004,0.213032581 Z M171.380159,4.67418546 C173.638429,4.70043204 175.739542,5.83892104 177,7.71929825 L177,7.71929825 L174.677133,9.54887218 C173.93593,8.43778242 172.70576,7.75408672 171.373915,7.71303258 C169.032315,7.71303258 167.683553,9.34210526 167.683553,12.2932331 C167.683553,15.2443609 169.032315,16.9360902 171.373915,16.9360902 C172.70576,16.8950361 173.93593,16.2113404 174.677133,15.1002506 L174.677133,15.1002506 L177,16.9298246 C175.739542,18.8102018 173.638429,19.9486908 171.380159,19.9749373 C167.009172,19.9749373 164.480244,16.566416 164.480244,12.2932331 C164.480244,8.02005013 167.009172,4.67418546 171.380159,4.67418546 Z M156.16288,4.65538847 C160.290341,4.65538847 162.656918,7.40601504 162.656918,12.1741855 C162.656918,12.7130326 162.606964,13.1766917 162.575743,13.7030075 L162.575743,13.7030075 L152.847174,13.7030075 C153.025189,15.6436227 154.651588,17.1259979 156.593735,17.1177945 C158.078696,17.1234075 159.509988,16.5610278 160.59631,15.5451128 L160.59631,15.5451128 L162.107423,17.9260652 C160.535384,19.255839 158.54367,19.9819748 156.487582,19.974988 C152.072885,19.974988 149.681331,16.5350877 149.681331,12.2681704 C149.681331,8.33333333 152.122839,4.67418546 156.144147,4.67418546 L156.144147,4.67418546 Z M105.50314,4.88095238 L105.503327,13.7699473 C105.519416,15.5543303 105.961261,16.9360902 107.838496,16.9360902 C108.931243,16.9360902 109.917837,16.2656642 110.804523,15.1691729 L110.804523,15.1691729 L110.804523,4.88095238 L114.014076,4.88095238 L114.014076,19.7681704 L111.310308,19.7681704 L110.935652,18.339599 C109.958355,19.3443789 108.631317,19.9304562 107.232802,19.9749373 C103.736012,19.9749373 102.293586,17.6503759 102.293586,14.2418546 L102.293586,14.2418546 L102.293586,4.88095238 L105.50314,4.88095238 Z M3.37190433,0.206766917 L9.65988146,13.5902256 L15.9478586,0.206766917 L19.3197629,0.206766917 L19.3197629,19.7619048 L16.0415226,19.7619048 L16.0415226,6.88596491 L11.0960629,17.3809524 L8.22369999,17.3809524 L3.27824032,6.88596491 L3.27824032,19.7619048 L-1.77635684e-15,19.7619048 L-1.77635684e-15,0.206766917 L3.37190433,0.206766917 Z M77.3165173,14.3609023 L78.3905313,15.1378446 L78.7964087,16.4035088 L78.3905313,17.6629073 L77.3165173,18.4461153 L75.9927327,18.4461153 L74.924963,17.6629073 L74.5190856,16.4035088 L74.924963,15.1378446 L75.9927327,14.3609023 L77.3165173,14.3609023 Z M65.2588372,7.68170426 C62.6175122,7.68170426 61.6871163,9.69298246 61.6871163,12.2932331 C61.6871163,15.3258145 62.9547026,16.9987469 65.2588372,16.9987469 C67.5879489,16.9987469 68.8368024,15.3258145 68.8368024,12.2932331 C68.8368024,9.26065163 67.6004375,7.68170426 65.2588372,7.68170426 Z M132.172405,7.68170426 C129.53108,7.68170426 128.600684,9.69298246 128.600684,12.2932331 C128.600684,15.3258145 129.868271,16.9987469 132.172405,16.9987469 C134.495273,16.9987469 135.744126,15.3258145 135.744126,12.2932331 C135.744126,9.26065163 134.507761,7.68170426 132.172405,7.68170426 Z M90.6667607,3.13283208 C87.3260778,3.13283208 84.9532562,5.23809524 84.9532562,10.0250627 C84.9532562,14.8120301 87.3260778,16.9172932 90.6667607,16.9172932 C94.0261765,16.9172932 96.4052424,14.8120301 96.4052424,10.0250627 C96.4052424,5.23809524 94.0074437,3.13283208 90.6667607,3.13283208 Z M28.0180272,7.44360902 C26.6505327,7.44360902 24.9770691,8.52756892 24.7772525,11.0338346 L24.7772525,11.0338346 L31.2463134,11.0338346 L31.2463134,10.9649123 C31.1776265,8.69674185 30.0286813,7.44360902 28.0180272,7.44360902 Z M156.194101,7.42481203 C154.820363,7.42481203 153.153143,8.50877193 152.947082,11.0150376 L152.947082,11.0150376 L159.416143,11.0150376 L159.416143,10.9461153 C159.347456,8.67794486 158.204756,7.42481203 156.194101,7.42481203 Z M77.3165173,6.19047619 L78.3905313,6.97368421 L78.7964087,8.23308271 L78.3905313,9.49874687 L77.3165173,10.2819549 L75.9927327,10.2819549 L74.924963,9.49874687 L74.5190856,8.23308271 L74.924963,6.97368421 L75.9927327,6.19047619 L77.3165173,6.19047619 Z" fill="#000000" fill-rule="nonzero"></path>
    </g>
</svg>
